<?xml version="1.0" encoding="UTF-8"?>
<svg xmlns="http://www.w3.org/2000/svg" xmlns:xlink="http://www.w3.org/1999/xlink" width="25px" height="25px" viewBox="0 0 25 14" version="1.1">
<g id="surface1">
<path style=" stroke:none;fill-rule:evenodd;fill:rgb(90.588235%,25.098039%,25.098039%);fill-opacity:1;" d="M 1.390625 1.847656 L 18.691406 1.847656 C 18.660156 2.011719 18.640625 2.183594 18.628906 2.351562 C 18.574219 3.398438 18.949219 4.371094 19.597656 5.09375 C 20.21875 5.785156 21.097656 6.25 22.089844 6.335938 C 22.160156 6.347656 22.230469 6.351562 22.304688 6.351562 C 22.453125 6.355469 22.597656 6.351562 22.742188 6.339844 L 22.742188 12.625 C 22.742188 13.378906 22.121094 14 21.363281 14 L 1.390625 14 C 0.636719 14 0.015625 13.382812 0.015625 12.625 L 0.015625 3.222656 C 0.015625 2.46875 0.632812 1.847656 1.390625 1.847656 Z M 22.566406 0.00390625 C 23.976562 0.078125 25.058594 1.28125 24.980469 2.6875 C 24.90625 4.097656 23.703125 5.175781 22.292969 5.101562 C 20.882812 5.023438 19.800781 3.824219 19.878906 2.417969 C 19.953125 1.011719 21.15625 -0.0703125 22.566406 0.00390625 Z M 22.511719 0.957031 C 22.957031 0.980469 23.347656 1.179688 23.621094 1.484375 C 23.894531 1.789062 24.050781 2.195312 24.027344 2.636719 C 24.003906 3.078125 23.804688 3.46875 23.5 3.742188 C 23.195312 4.015625 22.789062 4.175781 22.34375 4.152344 C 21.902344 4.125 21.507812 3.925781 21.238281 3.625 C 20.960938 3.320312 20.804688 2.910156 20.828125 2.46875 C 20.851562 2.027344 21.050781 1.636719 21.355469 1.363281 C 21.664062 1.089844 22.070312 0.929688 22.511719 0.957031 Z M 5.734375 4.476562 L 5.734375 9.992188 L 6.878906 9.992188 L 6.878906 11.371094 L 3.832031 11.371094 L 3.832031 4.476562 Z M 9.445312 4.476562 L 9.445312 11.371094 L 7.542969 11.371094 L 7.542969 4.476562 Z M 14.90625 4.476562 L 13.945312 11.371094 L 11.066406 11.371094 L 9.964844 4.476562 L 11.96875 4.476562 C 12.195312 6.378906 12.359375 7.988281 12.464844 9.300781 C 12.566406 7.972656 12.671875 6.792969 12.777344 5.761719 L 12.902344 4.476562 Z M 15.429688 4.476562 L 18.597656 4.476562 L 18.597656 5.855469 L 17.335938 5.855469 L 17.335938 7.171875 L 18.515625 7.171875 L 18.515625 8.476562 L 17.335938 8.476562 L 17.335938 9.996094 L 18.730469 9.996094 L 18.730469 11.371094 L 15.429688 11.371094 Z M 15.429688 4.476562 "/>
<path style=" stroke:none;fill-rule:nonzero;fill:rgb(14.117647%,14.117647%,14.117647%);fill-opacity:1;" d="M 22.480469 1.558594 C 23.03125 1.589844 23.453125 2.058594 23.421875 2.601562 C 23.394531 3.152344 22.925781 3.570312 22.378906 3.542969 C 21.828125 3.515625 21.410156 3.046875 21.4375 2.5 C 21.464844 1.953125 21.933594 1.53125 22.480469 1.558594 Z M 22.480469 1.558594 "/>
</g>
</svg>
