<?xml version="1.0" standalone="no"?>
<!DOCTYPE svg PUBLIC "-//W3C//DTD SVG 20010904//EN"
 "http://www.w3.org/TR/2001/REC-SVG-20010904/DTD/svg10.dtd">
<svg version="1.0" xmlns="http://www.w3.org/2000/svg"
 width="25.000000pt" height="25.000000pt" viewBox="0 0 25.000000 25.000000"
 preserveAspectRatio="xMidYMid meet">

<g transform="translate(0.000000,25.000000) scale(0.100000,-0.100000)"
fill="#000000" stroke="none">
<path d="M60 180 c-34 -5 -18 -7 64 -8 60 -1 107 0 105 2 -9 8 -127 13 -169 6z"/>
<path d="M37 154 c-4 -4 -7 -25 -7 -46 l0 -38 96 0 95 0 -3 43 -3 42 -85 3
c-47 1 -89 0 -93 -4z m39 -54 c8 0 14 9 14 20 0 11 5 20 10 20 6 0 10 -11 10
-25 0 -21 -5 -25 -30 -25 -26 0 -30 3 -29 28 2 23 2 24 6 5 2 -13 11 -23 19
-23z m84 25 c0 -5 -5 -17 -10 -25 -9 -13 -11 -13 -20 0 -16 24 -12 39 10 37
11 -1 20 -6 20 -12z m36 -10 c0 -14 -6 -25 -13 -25 -7 0 -13 11 -13 25 0 14 6
25 13 25 7 0 13 -11 13 -25z"/>
<path d="M22 42 c4 -21 202 -21 206 0 2 11 -8 13 -50 8 -29 -3 -77 -2 -106 1
-42 4 -52 2 -50 -9z"/>
</g>
</svg>
